<svg width="32" height="32" viewBox="0 0 32 32" fill="none" xmlns="http://www.w3.org/2000/svg">
<path d="M20 14.6667H24M24 14.6667H28M24 14.6667V18.6667M24 14.6667V10.6667M20 25.3334V23.6667C20 20.9054 17.4413 18.6667 14.2853 18.6667H9.71467C6.55867 18.6667 4 20.9054 4 23.6667V25.3334M16 10.6667C16 11.7276 15.5786 12.745 14.8284 13.4951C14.0783 14.2453 13.0609 14.6667 12 14.6667C10.9391 14.6667 9.92172 14.2453 9.17157 13.4951C8.42143 12.745 8 11.7276 8 10.6667C8 9.60582 8.42143 8.58841 9.17157 7.83826C9.92172 7.08811 10.9391 6.66669 12 6.66669C13.0609 6.66669 14.0783 7.08811 14.8284 7.83826C15.5786 8.58841 16 9.60582 16 10.6667Z" stroke="black" stroke-width="2" stroke-linecap="round" stroke-linejoin="round"/>
</svg>
